<svg xmlns="http://www.w3.org/2000/svg" height="40px" viewBox="0 0 24 24" width="24px" fill="#000000"><path d="M0 0h24v24H0V0z" fill="none"/><path d="M24 14.3472C24 12.1524 23.9811 10.353 23.4591 8.19561C21.9188 1.82977 14.4124 -1.2934 8.22627 0.50241C7.47799 0.720369 6.74983 0.997837 6.04933 1.33194C5.13478 1.76646 4.44912 2.29872 3.66244 2.92416C3.58098 2.98669 3.50332 3.05697 3.4281 3.12505L3.41617 3.13585C2.15326 4.2733 1.10084 5.68776 0.543577 7.2739C0.101559 8.53593 0.0136815 10.0238 0.761429 11.295C1.5397 12.6178 3.36986 13.0275 4.77116 12.5226C5.96672 12.0921 6.80339 10.9187 6.81497 9.91848C6.83118 8.51833 6.47825 8.0922 6.00499 7.52079C5.94041 7.44282 5.87359 7.36215 5.80517 7.27593C5.8122 7.26651 5.82388 7.24756 5.8407 7.22024C6.03029 6.91237 6.8743 5.54181 9.11399 4.78175C12.3534 3.6828 15.819 4.36851 18.0259 6.97511C19.6856 8.9355 19.8413 11.295 19.7698 13.7471L0 13.9056V18.2133C0 19.096 0.550944 20.2634 1.35394 20.6903L18.9168 30H24V14.3472ZM19.7835 24.804L6.70078 18.2052L19.7835 18.2123V24.804Z"/></svg>